<svg aria-hidden="true" style="position: absolute; width: 0; height: 0; overflow: hidden;" version="1.1" xmlns="http://www.w3.org/2000/svg" xmlns:xlink="http://www.w3.org/1999/xlink">
<defs>
    <symbol id="icon-facebook" viewBox="0 0 18 32">
        <path d="M11.25 32h-5.125c-0.856 0-1.552-0.696-1.552-1.552v-11.559h-2.99c-0.856 0-1.552-0.697-1.552-1.552v-4.953c0-0.856 0.696-1.552 1.552-1.552h2.99v-2.48c0-2.459 0.772-4.551 2.233-6.050 1.467-1.506 3.518-2.301 5.93-2.301l3.908 0.006c0.854 0.001 1.55 0.698 1.55 1.552v4.599c0 0.856-0.696 1.552-1.552 1.552l-2.631 0.001c-0.803 0-1.007 0.161-1.051 0.21-0.072 0.082-0.158 0.313-0.158 0.951v1.96h3.642c0.274 0 0.54 0.068 0.768 0.195 0.492 0.275 0.799 0.795 0.799 1.358l-0.002 4.953c0 0.855-0.696 1.552-1.552 1.552h-3.654v11.559c0 0.856-0.697 1.552-1.553 1.552zM6.449 30.124h4.477v-12.075c0-0.572 0.465-1.036 1.036-1.036h4.17l0.002-4.305h-4.172c-0.571 0-1.036-0.465-1.036-1.036v-2.799c0-0.733 0.075-1.566 0.628-2.193 0.668-0.757 1.722-0.845 2.456-0.845l2.308-0.001v-3.952l-3.583-0.006c-3.877 0-6.285 2.481-6.285 6.476v3.32c0 0.571-0.465 1.036-1.036 1.036h-3.506v4.305h3.506c0.571 0 1.036 0.465 1.036 1.036v12.075z"></path>
    </symbol>
    <symbol id="icon-instagram" viewBox="0 0 32 32">
        <path d="M23.338 0h-14.676c-4.776 0-8.662 3.886-8.662 8.662v14.676c0 4.776 3.886 8.662 8.662 8.662h14.676c4.776 0 8.662-3.886 8.662-8.662v-14.676c0-4.776-3.886-8.662-8.662-8.662zM30.124 23.338c0 3.742-3.044 6.786-6.786 6.786h-14.676c-3.742 0-6.786-3.044-6.786-6.786v-14.676c0-3.742 3.044-6.786 6.786-6.786h14.676c3.742 0 6.786 3.044 6.786 6.786v14.676z"></path>
        <path d="M16 7.25c-4.825 0-8.75 3.925-8.75 8.75s3.925 8.75 8.75 8.75c4.825 0 8.75-3.925 8.75-8.75s-3.925-8.75-8.75-8.75zM16 22.874c-3.79 0-6.874-3.083-6.874-6.874s3.084-6.874 6.874-6.874c3.79 0 6.874 3.084 6.874 6.874s-3.083 6.874-6.874 6.874z"></path>
        <path d="M24.959 4.143c-1.426 0-2.585 1.16-2.585 2.585s1.16 2.586 2.585 2.586c1.426 0 2.586-1.16 2.586-2.586s-1.16-2.585-2.586-2.585zM24.959 7.438c-0.391 0-0.709-0.318-0.709-0.71s0.318-0.709 0.709-0.709c0.391 0 0.71 0.318 0.71 0.709s-0.318 0.71-0.71 0.71z"></path>
    </symbol>
    <symbol id="icon-youtube" viewBox="0 0 42 32">
        <path d="M27.613 14.102l-9.329-5.104c-0.536-0.294-1.17-0.283-1.696 0.029s-0.84 0.863-0.84 1.474v10.121c0 0.609 0.312 1.159 0.834 1.471 0.273 0.163 0.575 0.245 0.879 0.245 0.278 0 0.556-0.069 0.812-0.206l9.329-5.016c0.554-0.298 0.899-0.874 0.902-1.503s-0.339-1.207-0.891-1.51zM18.223 19.349v-7.564l6.972 3.815-6.972 3.749z"></path>
        <path d="M41.916 7.549l-0.002-0.019c-0.036-0.34-0.392-3.363-1.861-4.901-1.699-1.809-3.625-2.028-4.551-2.134-0.077-0.009-0.147-0.017-0.21-0.025l-0.074-0.008c-5.582-0.406-14.013-0.461-14.098-0.462l-0.007-0-0.007 0c-0.084 0-8.515 0.056-14.148 0.462l-0.074 0.008c-0.060 0.008-0.126 0.015-0.198 0.024-0.916 0.106-2.821 0.326-4.524 2.2-1.4 1.521-1.804 4.48-1.846 4.812l-0.005 0.043c-0.013 0.141-0.311 3.508-0.311 6.889v3.16c0 3.38 0.298 6.747 0.311 6.889l0.002 0.021c0.036 0.334 0.391 3.302 1.854 4.841 1.597 1.748 3.617 1.979 4.703 2.104 0.172 0.020 0.32 0.036 0.42 0.054l0.098 0.014c3.223 0.307 13.329 0.458 13.758 0.464l0.013 0 0.013-0c0.084-0 8.515-0.056 14.097-0.462l0.074-0.008c0.071-0.009 0.15-0.018 0.237-0.027 0.91-0.097 2.805-0.297 4.486-2.146 1.4-1.522 1.805-4.48 1.846-4.812l0.005-0.043c0.013-0.142 0.311-3.508 0.311-6.889v-3.16c-0-3.38-0.298-6.747-0.311-6.889zM39.752 17.597c0 3.129-0.273 6.351-0.299 6.646-0.105 0.815-0.532 2.686-1.214 3.428-1.052 1.157-2.132 1.272-2.92 1.355-0.095 0.010-0.184 0.020-0.264 0.030-5.399 0.39-13.512 0.45-13.886 0.453-0.419-0.006-10.377-0.159-13.502-0.449-0.16-0.026-0.333-0.046-0.515-0.067-0.925-0.106-2.191-0.251-3.165-1.322l-0.023-0.024c-0.67-0.698-1.085-2.448-1.19-3.394-0.020-0.224-0.3-3.484-0.3-6.656v-3.16c0-3.125 0.273-6.343 0.299-6.645 0.125-0.96 0.56-2.718 1.214-3.429 1.084-1.192 2.226-1.324 2.982-1.411 0.072-0.008 0.139-0.016 0.202-0.024 5.478-0.392 13.649-0.451 13.942-0.453 0.293 0.002 8.461 0.061 13.89 0.453 0.067 0.008 0.139 0.017 0.218 0.026 0.777 0.089 1.952 0.223 3.031 1.373l0.010 0.011c0.67 0.698 1.085 2.479 1.19 3.443 0.019 0.211 0.3 3.478 0.3 6.657v3.16z"></path>
    </symbol>
    <symbol id="icon-twitter" viewBox="0 0 39 32">
        <path d="M14.738 31.978c-6.465 0-11.574-1.129-14.018-3.098l-0.048-0.038-0.043-0.043c-0.581-0.581-0.771-1.343-0.522-2.091l0.023-0.062c0.303-0.757 1.044-1.266 1.848-1.271 1.654-0.029 3.1-0.226 4.413-0.608-2.094-0.974-3.549-2.66-4.415-5.101-0.291-0.761-0.040-1.605 0.631-2.108 0.166-0.124 0.353-0.218 0.551-0.281-1.164-1.343-2.023-2.872-2.505-4.489l-0.015-0.050-0.010-0.051c-0.163-0.818 0.202-1.658 0.872-2.020 0.281-0.161 0.586-0.245 0.893-0.252-0.33-0.712-0.571-1.442-0.713-2.177-0.395-2.037-0.069-4.078 0.969-6.068l0.24-0.48c0.192-0.384 0.56-0.655 0.984-0.723s0.858 0.071 1.162 0.375l0.438 0.438c3.457 3.625 6.554 5.345 11.909 6.521 0.239-2.055 1.128-3.966 2.561-5.469 1.706-1.789 3.984-2.793 6.415-2.827h0.016c1.773 0 3.973 1.012 5.304 1.726 1.141-0.374 2.516-0.952 3.943-1.563 0.668-0.313 1.491-0.17 2.015 0.355 0.514 0.514 0.657 1.24 0.384 1.945-0.104 0.289-0.221 0.572-0.352 0.849 0.195 0.090 0.374 0.211 0.525 0.362 0.457 0.457 0.647 1.171 0.485 1.821l-0.017 0.062c-0.547 1.762-1.597 3.197-2.986 4.098-0.232 12.353-9.534 22.323-20.935 22.323zM2.898 27.615c2.304 1.303 6.693 2.092 11.84 2.092 4.948 0 9.618-2.124 13.148-5.982 3.559-3.889 5.519-9.054 5.519-14.543v-0.062c0-0.497 0.274-0.951 0.714-1.184 0.893-0.473 1.617-1.279 2.087-2.309-0.485 0.077-0.978-0.118-1.281-0.524-0.351-0.472-0.355-1.109-0.010-1.585 0.186-0.257 0.355-0.525 0.506-0.801-1.232 0.517-2.402 0.981-3.418 1.29-0.369 0.112-0.78 0.068-1.118-0.12-1.808-1.007-3.492-1.61-4.508-1.613-3.747 0.057-6.793 3.266-6.793 7.157 0 0.402-0.178 0.779-0.489 1.035s-0.715 0.358-1.11 0.28c-6.174-1.216-9.832-3.040-13.636-6.863-0.545 1.306-0.694 2.622-0.442 3.922 0.256 1.316 0.936 2.635 1.967 3.814 0.392 0.447 0.444 1.087 0.129 1.592-0.313 0.503-0.909 0.738-1.481 0.585-0.447-0.12-0.859-0.277-1.249-0.48 0.795 1.726 2.161 3.322 3.879 4.5 0.498 0.341 0.706 0.978 0.506 1.547s-0.759 0.938-1.363 0.893c-0.658-0.049-1.241-0.174-1.778-0.384 0.963 1.962 2.503 3.041 4.874 3.454 0.565 0.098 1.004 0.544 1.094 1.11s-0.19 1.126-0.696 1.394c-2.021 1.072-4.231 1.647-6.895 1.788z"></path>
    </symbol>
    <symbol id="icon-header-instagram" viewBox="0 0 32 32">
        <path d="M16 2.881c4.275 0 4.781 0.019 6.462 0.094 1.563 0.069 2.406 0.331 2.969 0.55 0.744 0.288 1.281 0.638 1.837 1.194 0.563 0.563 0.906 1.094 1.2 1.838 0.219 0.563 0.481 1.412 0.55 2.969 0.075 1.688 0.094 2.194 0.094 6.463s-0.019 4.781-0.094 6.463c-0.069 1.563-0.331 2.406-0.55 2.969-0.288 0.744-0.637 1.281-1.194 1.837-0.563 0.563-1.094 0.906-1.837 1.2-0.563 0.219-1.413 0.481-2.969 0.55-1.688 0.075-2.194 0.094-6.463 0.094s-4.781-0.019-6.463-0.094c-1.563-0.069-2.406-0.331-2.969-0.55-0.744-0.288-1.281-0.637-1.838-1.194-0.563-0.563-0.906-1.094-1.2-1.837-0.219-0.563-0.481-1.413-0.55-2.969-0.075-1.688-0.094-2.194-0.094-6.463s0.019-4.781 0.094-6.463c0.069-1.563 0.331-2.406 0.55-2.969 0.288-0.744 0.638-1.281 1.194-1.838 0.563-0.563 1.094-0.906 1.838-1.2 0.563-0.219 1.412-0.481 2.969-0.55 1.681-0.075 2.188-0.094 6.463-0.094zM16 0c-4.344 0-4.887 0.019-6.594 0.094-1.7 0.075-2.869 0.35-3.881 0.744-1.056 0.412-1.95 0.956-2.837 1.85-0.894 0.888-1.438 1.781-1.85 2.831-0.394 1.019-0.669 2.181-0.744 3.881-0.075 1.713-0.094 2.256-0.094 6.6s0.019 4.887 0.094 6.594c0.075 1.7 0.35 2.869 0.744 3.881 0.413 1.056 0.956 1.95 1.85 2.837 0.887 0.887 1.781 1.438 2.831 1.844 1.019 0.394 2.181 0.669 3.881 0.744 1.706 0.075 2.25 0.094 6.594 0.094s4.888-0.019 6.594-0.094c1.7-0.075 2.869-0.35 3.881-0.744 1.050-0.406 1.944-0.956 2.831-1.844s1.438-1.781 1.844-2.831c0.394-1.019 0.669-2.181 0.744-3.881 0.075-1.706 0.094-2.25 0.094-6.594s-0.019-4.887-0.094-6.594c-0.075-1.7-0.35-2.869-0.744-3.881-0.394-1.063-0.938-1.956-1.831-2.844-0.887-0.887-1.781-1.438-2.831-1.844-1.019-0.394-2.181-0.669-3.881-0.744-1.712-0.081-2.256-0.1-6.6-0.1v0z"></path>
        <path d="M16 7.781c-4.537 0-8.219 3.681-8.219 8.219s3.681 8.219 8.219 8.219 8.219-3.681 8.219-8.219c0-4.537-3.681-8.219-8.219-8.219zM16 21.331c-2.944 0-5.331-2.387-5.331-5.331s2.387-5.331 5.331-5.331c2.944 0 5.331 2.387 5.331 5.331s-2.387 5.331-5.331 5.331z"></path>
        <path d="M26.462 7.456c0 1.060-0.859 1.919-1.919 1.919s-1.919-0.859-1.919-1.919c0-1.060 0.859-1.919 1.919-1.919s1.919 0.859 1.919 1.919z"></path>
    </symbol>
    <symbol id="icon-header-facebook" viewBox="0 0 32 32">
        <path d="M19 6h5v-6h-5c-3.86 0-7 3.14-7 7v3h-4v6h4v16h6v-16h5l1-6h-6v-3c0-0.542 0.458-1 1-1z"></path>
    </symbol>
    <symbol id="icon-header-twitter" viewBox="0 0 32 32">
        <path d="M32 7.075c-1.175 0.525-2.444 0.875-3.769 1.031 1.356-0.813 2.394-2.1 2.887-3.631-1.269 0.75-2.675 1.3-4.169 1.594-1.2-1.275-2.906-2.069-4.794-2.069-3.625 0-6.563 2.938-6.563 6.563 0 0.512 0.056 1.012 0.169 1.494-5.456-0.275-10.294-2.888-13.531-6.862-0.563 0.969-0.887 2.1-0.887 3.3 0 2.275 1.156 4.287 2.919 5.463-1.075-0.031-2.087-0.331-2.975-0.819 0 0.025 0 0.056 0 0.081 0 3.181 2.263 5.838 5.269 6.437-0.55 0.15-1.131 0.231-1.731 0.231-0.425 0-0.831-0.044-1.237-0.119 0.838 2.606 3.263 4.506 6.131 4.563-2.25 1.762-5.075 2.813-8.156 2.813-0.531 0-1.050-0.031-1.569-0.094 2.913 1.869 6.362 2.95 10.069 2.95 12.075 0 18.681-10.006 18.681-18.681 0-0.287-0.006-0.569-0.019-0.85 1.281-0.919 2.394-2.075 3.275-3.394z"></path>
    </symbol>
    <symbol id="icon-header-youtube" viewBox="0 0 32 32">
        <path d="M31.681 9.6c0 0-0.313-2.206-1.275-3.175-1.219-1.275-2.581-1.281-3.206-1.356-4.475-0.325-11.194-0.325-11.194-0.325h-0.012c0 0-6.719 0-11.194 0.325-0.625 0.075-1.987 0.081-3.206 1.356-0.963 0.969-1.269 3.175-1.269 3.175s-0.319 2.588-0.319 5.181v2.425c0 2.587 0.319 5.181 0.319 5.181s0.313 2.206 1.269 3.175c1.219 1.275 2.819 1.231 3.531 1.369 2.563 0.244 10.881 0.319 10.881 0.319s6.725-0.012 11.2-0.331c0.625-0.075 1.988-0.081 3.206-1.356 0.962-0.969 1.275-3.175 1.275-3.175s0.319-2.587 0.319-5.181v-2.425c-0.006-2.588-0.325-5.181-0.325-5.181zM12.694 20.15v-8.994l8.644 4.513-8.644 4.481z"></path>
    </symbol>
    <symbol id="icon-quality" viewBox="0 0 32 32">
        <path d="M2.129 18.63h0.532v2.986c-0.001 0.245 0.070 0.485 0.204 0.69s0.325 0.367 0.549 0.465c0.171 0.078 0.357 0.117 0.546 0.117 0.317-0.001 0.622-0.117 0.859-0.328l4.432-3.93h10.781c-0.24 0.319-0.479 0.626-0.716 0.921-0.44 0.545-0.996 0.984-1.628 1.285s-1.324 0.457-2.024 0.456h-0.857c-0.11-0.31-0.313-0.579-0.581-0.77s-0.589-0.294-0.918-0.295h-3.194c-0.424 0-0.83 0.168-1.129 0.468s-0.468 0.706-0.468 1.129v8.517c0 0.424 0.168 0.83 0.468 1.129s0.706 0.468 1.129 0.468h3.194c0.329-0.001 0.65-0.104 0.918-0.295s0.471-0.459 0.581-0.77h1.163c1.297-0.055 2.593 0.143 3.815 0.582 0.815 0.328 1.687 0.492 2.566 0.482h6.584c0.471 0.006 0.927-0.161 1.283-0.469s0.586-0.737 0.647-1.203c0.046-0.458-0.078-0.916-0.348-1.288 0.242-0.146 0.447-0.346 0.6-0.584s0.249-0.508 0.28-0.789c0.046-0.458-0.078-0.916-0.348-1.288 0.242-0.146 0.447-0.346 0.6-0.584s0.249-0.508 0.28-0.789c0.026-0.26-0.002-0.522-0.083-0.77s-0.213-0.477-0.388-0.671c-0.025-0.027-0.053-0.053-0.078-0.080 0.027-0.026 0.053-0.053 0.078-0.080 0.175-0.194 0.307-0.423 0.388-0.671s0.11-0.511 0.083-0.771c-0.061-0.467-0.291-0.895-0.647-1.203s-0.812-0.475-1.283-0.469h-5.732c0.38-0.822 0.765-1.734 1.115-2.561 0.196-0.466 0.382-0.905 0.548-1.284 0.115-0.259 0.167-0.541 0.153-0.824s-0.095-0.558-0.236-0.804c-0.141-0.246-0.337-0.455-0.573-0.611s-0.506-0.254-0.788-0.286v-11.727c0-0.565-0.224-1.106-0.624-1.506s-0.941-0.624-1.506-0.624h-20.227c-0.565 0-1.106 0.224-1.506 0.624s-0.624 0.941-0.624 1.506v14.372c0 0.565 0.224 1.106 0.624 1.506s0.941 0.624 1.506 0.624zM13.84 30.341c0 0.141-0.056 0.277-0.156 0.376s-0.235 0.156-0.376 0.156h-3.194c-0.141 0-0.277-0.056-0.376-0.156s-0.156-0.235-0.156-0.376v-8.517c0-0.141 0.056-0.277 0.156-0.376s0.235-0.156 0.376-0.156h3.194c0.141 0 0.277 0.056 0.376 0.156s0.156 0.235 0.156 0.376v8.517zM24.954 15.955c-0.168 0.383-0.355 0.826-0.554 1.296-0.458 1.083-0.977 2.311-1.456 3.27-0.041 0.081-0.060 0.171-0.056 0.262s0.031 0.179 0.079 0.256c0.048 0.077 0.114 0.141 0.194 0.185s0.169 0.067 0.259 0.067h6.578c0.207-0.008 0.41 0.060 0.57 0.191s0.267 0.317 0.3 0.521c0.012 0.111 0 0.224-0.034 0.331s-0.091 0.205-0.166 0.288-0.167 0.15-0.269 0.196c-0.102 0.046-0.213 0.069-0.325 0.069-0.141 0-0.277 0.056-0.376 0.156s-0.156 0.235-0.156 0.376c0 0.141 0.056 0.277 0.156 0.376s0.235 0.156 0.376 0.156c0.112-0 0.223 0.023 0.326 0.069s0.194 0.112 0.269 0.195c0.075 0.083 0.132 0.182 0.166 0.288s0.046 0.22 0.034 0.331c-0.033 0.205-0.14 0.391-0.301 0.522s-0.364 0.199-0.571 0.191h-0.456c-0.141 0-0.277 0.056-0.376 0.156s-0.156 0.235-0.156 0.376c0 0.141 0.056 0.277 0.156 0.376s0.235 0.156 0.376 0.156c0.112-0 0.223 0.023 0.326 0.069s0.194 0.112 0.269 0.195c0.075 0.083 0.132 0.182 0.166 0.288s0.046 0.22 0.034 0.331c-0.033 0.205-0.14 0.391-0.3 0.522s-0.364 0.199-0.571 0.191h-0.456c-0.141 0-0.277 0.056-0.376 0.156s-0.156 0.235-0.156 0.376 0.056 0.277 0.156 0.376c0.1 0.1 0.235 0.156 0.376 0.156 0.112-0 0.223 0.023 0.326 0.069s0.194 0.112 0.269 0.195c0.075 0.083 0.132 0.182 0.166 0.288s0.046 0.22 0.034 0.331c-0.033 0.205-0.14 0.391-0.3 0.522s-0.364 0.199-0.571 0.191h-6.584c-0.739 0.010-1.472-0.127-2.158-0.401-1.351-0.494-2.785-0.719-4.222-0.664h-1.065v-7.452h0.761c0.859 0.001 1.707-0.19 2.483-0.56s1.458-0.909 1.997-1.578c1.255-1.589 2.42-3.247 3.489-4.967 0.101-0.16 0.259-0.276 0.442-0.324s0.378-0.026 0.545 0.063 0.294 0.238 0.356 0.417c0.062 0.179 0.054 0.375-0.022 0.548h-0.001zM1.065 2.129c0-0.282 0.112-0.553 0.312-0.753s0.47-0.312 0.753-0.312h20.227c0.282 0 0.553 0.112 0.753 0.312s0.312 0.47 0.312 0.753v11.923c-0.279 0.145-0.515 0.361-0.685 0.626-0.718 1.124-1.342 2.059-1.927 2.887h-11.76c-0.13 0-0.256 0.048-0.353 0.134l-4.581 4.066c-0.035 0.031-0.079 0.051-0.125 0.057s-0.094-0.001-0.136-0.021c-0.037-0.015-0.069-0.040-0.092-0.073s-0.035-0.072-0.035-0.112v-3.518c0-0.141-0.056-0.277-0.156-0.376s-0.235-0.156-0.376-0.156h-1.065c-0.282 0-0.553-0.112-0.753-0.312s-0.312-0.47-0.312-0.753v-14.372z"></path>
        <path d="M9.705 6.967l-0.199 1.208c-0.039 0.225-0.014 0.455 0.073 0.666s0.231 0.393 0.417 0.525c0.177 0.127 0.387 0.201 0.604 0.214s0.434-0.036 0.625-0.142l1.017-0.557 1.018 0.557c0.197 0.104 0.419 0.151 0.641 0.135s0.435-0.095 0.615-0.227c0.179-0.132 0.318-0.312 0.4-0.519s0.104-0.433 0.063-0.652l-0.199-1.208 0.839-0.852c0.158-0.16 0.269-0.362 0.319-0.581s0.039-0.449-0.033-0.662c-0.067-0.208-0.191-0.393-0.358-0.535s-0.369-0.234-0.586-0.267l-1.143-0.174-0.516-1.087c-0.094-0.203-0.243-0.374-0.431-0.494s-0.406-0.184-0.629-0.184-0.441 0.064-0.629 0.184c-0.188 0.12-0.337 0.292-0.431 0.494l-0.516 1.087-1.143 0.173c-0.216 0.033-0.419 0.126-0.586 0.268s-0.291 0.327-0.358 0.535c-0.072 0.213-0.084 0.443-0.033 0.662s0.161 0.421 0.319 0.581l0.839 0.852zM9.591 5.21c0.005-0.022 0.016-0.042 0.033-0.057s0.037-0.026 0.058-0.030l1.423-0.213c0.086-0.013 0.168-0.047 0.238-0.099s0.126-0.12 0.164-0.199l0.639-1.342c0.008-0.020 0.021-0.037 0.039-0.049s0.039-0.018 0.060-0.018c0.021 0 0.042 0.006 0.060 0.018s0.031 0.029 0.039 0.049l0.639 1.342c0.037 0.079 0.094 0.147 0.164 0.199s0.152 0.086 0.238 0.099l1.423 0.213c0.112 0.017 0.127 0.177 0.059 0.246l-1.030 1.045c-0.059 0.060-0.103 0.133-0.128 0.212s-0.031 0.165-0.018 0.247l0.243 1.477c0.014 0.086-0.060 0.207-0.16 0.155l-1.273-0.697c-0.079-0.042-0.166-0.064-0.255-0.064s-0.177 0.022-0.255 0.064l-1.273 0.696c-0.101 0.056-0.171-0.070-0.16-0.155l0.243-1.476c0.014-0.083 0.008-0.168-0.018-0.247s-0.069-0.153-0.128-0.212l-1.029-1.047c-0.019-0.022-0.031-0.048-0.037-0.076s-0.004-0.057 0.005-0.084v0.003z"></path>
        <path d="M3.318 12.822l-0.199 1.208c-0.040 0.225-0.015 0.456 0.072 0.667s0.232 0.393 0.418 0.525c0.177 0.127 0.386 0.201 0.604 0.214s0.434-0.036 0.625-0.141l1.018-0.56 1.018 0.558c0.197 0.104 0.419 0.151 0.641 0.134s0.435-0.095 0.614-0.227c0.179-0.132 0.318-0.312 0.4-0.519s0.104-0.433 0.063-0.652l-0.199-1.208 0.839-0.852c0.158-0.16 0.269-0.362 0.319-0.581s0.039-0.449-0.034-0.662c-0.067-0.208-0.191-0.393-0.358-0.535s-0.369-0.234-0.586-0.268l-1.143-0.174-0.515-1.087c-0.093-0.203-0.243-0.374-0.431-0.495s-0.406-0.184-0.63-0.184c-0.223 0-0.442 0.064-0.63 0.184s-0.338 0.292-0.431 0.495l-0.515 1.087-1.143 0.173c-0.216 0.033-0.419 0.126-0.585 0.268s-0.29 0.327-0.358 0.535c-0.072 0.213-0.084 0.443-0.034 0.662s0.161 0.421 0.319 0.581l0.839 0.852zM3.203 11.066c0.005-0.022 0.017-0.042 0.033-0.057s0.037-0.026 0.059-0.030l1.423-0.213c0.086-0.013 0.168-0.047 0.238-0.099s0.126-0.12 0.163-0.199l0.639-1.342c0.008-0.020 0.022-0.037 0.039-0.048s0.038-0.018 0.060-0.018 0.042 0.006 0.060 0.018c0.018 0.012 0.031 0.029 0.039 0.048l0.639 1.342c0.037 0.079 0.094 0.147 0.164 0.199s0.152 0.086 0.238 0.099l1.423 0.213c0.113 0.017 0.127 0.177 0.059 0.246l-1.029 1.045c-0.059 0.060-0.103 0.133-0.128 0.212s-0.032 0.165-0.018 0.248l0.243 1.477c0.014 0.086-0.060 0.207-0.156 0.155l-1.273-0.697c-0.079-0.042-0.167-0.064-0.256-0.064s-0.177 0.022-0.256 0.064l-1.272 0.696c-0.102 0.053-0.172-0.069-0.16-0.155l0.243-1.476c0.014-0.083 0.007-0.168-0.018-0.248s-0.069-0.153-0.128-0.212l-1.032-1.047c-0.019-0.022-0.032-0.048-0.037-0.076s-0.004-0.057 0.004-0.084v0.003z"></path>
        <path d="M16.093 12.822l-0.199 1.208c-0.039 0.224-0.014 0.455 0.073 0.666s0.231 0.392 0.417 0.524c0.177 0.127 0.386 0.201 0.604 0.214s0.434-0.036 0.625-0.141l1.017-0.557 1.018 0.558c0.197 0.104 0.419 0.151 0.641 0.134s0.435-0.095 0.614-0.227c0.179-0.132 0.318-0.312 0.4-0.519s0.104-0.433 0.063-0.652l-0.198-1.208 0.839-0.852c0.158-0.16 0.269-0.362 0.319-0.581s0.039-0.449-0.034-0.662c-0.067-0.208-0.191-0.393-0.358-0.535s-0.369-0.234-0.585-0.268l-1.143-0.174-0.515-1.087c-0.093-0.203-0.243-0.374-0.431-0.495s-0.407-0.184-0.63-0.184c-0.223 0-0.442 0.064-0.63 0.184s-0.337 0.292-0.431 0.495l-0.515 1.087-1.143 0.173c-0.216 0.033-0.419 0.126-0.585 0.268s-0.29 0.327-0.358 0.535c-0.072 0.213-0.084 0.443-0.034 0.662s0.161 0.421 0.319 0.581l0.84 0.852zM15.979 11.066c0.005-0.022 0.017-0.042 0.033-0.057s0.037-0.026 0.059-0.030l1.423-0.213c0.086-0.013 0.168-0.047 0.238-0.099s0.126-0.12 0.163-0.199l0.639-1.342c0.008-0.020 0.022-0.037 0.039-0.048s0.038-0.018 0.060-0.018 0.042 0.006 0.060 0.018c0.018 0.012 0.031 0.029 0.039 0.048l0.639 1.342c0.037 0.079 0.093 0.147 0.163 0.199s0.152 0.086 0.238 0.099l1.423 0.213c0.113 0.017 0.127 0.177 0.059 0.246l-1.029 1.045c-0.059 0.060-0.103 0.133-0.128 0.212s-0.032 0.165-0.018 0.248l0.243 1.477c0.014 0.086-0.060 0.207-0.16 0.155l-1.273-0.697c-0.079-0.042-0.167-0.064-0.256-0.064s-0.177 0.022-0.256 0.064l-1.272 0.696c-0.101 0.053-0.172-0.069-0.16-0.155l0.243-1.476c0.014-0.083 0.007-0.168-0.018-0.248s-0.069-0.153-0.128-0.212l-1.029-1.045c-0.019-0.022-0.032-0.048-0.038-0.077s-0.004-0.058 0.005-0.085v0.003z"></path>
    </symbol>
    <symbol id="icon-innovation" viewBox="0 0 32 32">
        <path d="M31.778 1.715c-0.058-0.358-0.227-0.689-0.483-0.946s-0.586-0.427-0.944-0.486c-5.323-0.862-9.742 0.287-12.78 3.326l-4.043 4.042-7.28-1.037c-0.265-0.037-0.535-0.011-0.788 0.073s-0.484 0.227-0.674 0.415l-4.22 4.22c-0.323 0.324-0.505 0.764-0.505 1.222s0.181 0.897 0.505 1.222l3.49 3.489c-0.124 0.239-0.191 0.503-0.194 0.772-0.003 0.226 0.040 0.451 0.125 0.66s0.212 0.4 0.371 0.56l-1.233 0.615c-0.245 0.122-0.457 0.301-0.62 0.522s-0.27 0.477-0.314 0.747c-0.044 0.27-0.023 0.547 0.061 0.808s0.229 0.497 0.423 0.691l0.507 0.507c-0.061 0.064-0.124 0.126-0.182 0.195-1.783 2.133-1.901 5.538-1.867 6.892 0.004 0.133 0.045 0.262 0.119 0.372s0.177 0.198 0.298 0.252c0.121 0.054 0.255 0.073 0.387 0.055s0.255-0.073 0.357-0.159c0.47-0.433 1.039-0.743 1.658-0.903 0.094-0.022 0.16 0.049 0.122 0.16-0.040 0.115-0.049 0.239-0.026 0.359s0.076 0.232 0.156 0.325c0.079 0.093 0.182 0.163 0.297 0.204s0.239 0.051 0.359 0.030c1.538-0.246 2.972-0.932 4.131-1.973l0.438 0.438c0.159 0.161 0.348 0.288 0.557 0.375s0.432 0.132 0.658 0.131c0.096-0.001 0.192-0.009 0.286-0.024 0.271-0.043 0.527-0.15 0.748-0.312s0.399-0.375 0.521-0.621l0.618-1.236c0.322 0.32 0.758 0.5 1.213 0.499 0.271-0.003 0.537-0.068 0.778-0.192l3.489 3.489c0.325 0.323 0.764 0.505 1.222 0.505s0.897-0.181 1.222-0.505l4.222-4.221c0.188-0.19 0.331-0.422 0.415-0.676s0.11-0.524 0.074-0.79l-1.039-7.268 4.044-4.044c3.037-3.037 4.185-7.454 3.32-12.78zM30.178 1.335c0.138 0.022 0.265 0.087 0.363 0.186s0.162 0.227 0.183 0.364c0.529 3.253 0.259 6.133-0.77 8.517l-8.285-8.285c1.703-0.714 3.534-1.069 5.38-1.045 1.049 0.003 2.095 0.091 3.13 0.261l-0.001 0.002zM1.321 12.076l4.222-4.221c0.073-0.072 0.161-0.126 0.258-0.159s0.201-0.042 0.302-0.028l6.483 0.925-7.84 7.84-3.425-3.42c-0.062-0.062-0.11-0.134-0.144-0.215s-0.050-0.167-0.050-0.254 0.017-0.173 0.050-0.254c0.033-0.080 0.082-0.153 0.144-0.215zM5.17 29.767c-0.015-0.247-0.114-0.481-0.281-0.663-0.151-0.152-0.341-0.26-0.548-0.313s-0.426-0.048-0.631 0.013c-0.537 0.132-1.046 0.357-1.505 0.665 0.042-1.391 0.313-3.893 1.616-5.453 0.038-0.045 0.078-0.084 0.118-0.126l4.303 4.303c-0.867 0.787-1.927 1.33-3.072 1.573zM11.247 28.458c-0.047 0.094-0.115 0.175-0.2 0.237s-0.182 0.103-0.286 0.12-0.209 0.009-0.309-0.023c-0.1-0.032-0.191-0.087-0.265-0.161l-6.755-6.755c-0.074-0.074-0.13-0.165-0.162-0.265s-0.040-0.206-0.023-0.309c0.017-0.103 0.058-0.201 0.12-0.286s0.143-0.153 0.237-0.2l1.55-0.775 6.869 6.864-0.777 1.552zM24.396 25.956c0.014 0.102 0.005 0.206-0.027 0.304s-0.087 0.187-0.159 0.26l-4.222 4.221c-0.124 0.123-0.292 0.193-0.467 0.193s-0.343-0.069-0.467-0.193l-3.421-3.421 7.84-7.84 0.925 6.476zM14.509 26.933c-0.124 0.125-0.293 0.196-0.47 0.197s-0.346-0.068-0.472-0.191l-8.449-8.441c-0.123-0.127-0.191-0.297-0.189-0.473s0.074-0.345 0.2-0.469l13.197-13.194c0.693-0.687 1.479-1.275 2.333-1.747l8.8 8.8c-0.476 0.852-1.067 1.634-1.757 2.323l-13.193 13.194z"></path>
        <path d="M18.63 8.367c-0.328-0.316-0.766-0.492-1.222-0.492s-0.893 0.176-1.222 0.492c-0.277 0.278-0.451 0.642-0.494 1.032s0.048 0.783 0.258 1.114l-1.101 2.571-2.084 2.084c-0.14 0.141-0.238 0.318-0.282 0.512s-0.034 0.396 0.031 0.584l-1.013 1.013c-0.099 0.099-0.178 0.217-0.231 0.346s-0.081 0.268-0.081 0.408 0.028 0.279 0.081 0.408c0.054 0.129 0.132 0.247 0.231 0.346l1.779 1.779c0.2 0.2 0.471 0.312 0.754 0.312s0.554-0.112 0.754-0.312l1.013-1.013c0.11 0.039 0.225 0.059 0.341 0.061 0.116-0.001 0.232-0.022 0.342-0.060l0.97 0.97c0.105 0.105 0.23 0.189 0.367 0.246s0.285 0.086 0.433 0.085c0.149 0.001 0.296-0.028 0.433-0.085s0.262-0.14 0.367-0.246l0.845-0.845c0.212-0.212 0.331-0.5 0.331-0.8s-0.119-0.588-0.331-0.8l-0.878-0.879 2.535-1.085c0.359 0.228 0.789 0.316 1.208 0.246s0.798-0.291 1.064-0.623 0.4-0.75 0.376-1.174c-0.024-0.424-0.203-0.825-0.504-1.125l-5.070-5.068zM18.798 16.133l-2.867-2.867 0.813-1.898 3.955 3.95-1.901 0.815zM14.032 19.813l-1.779-1.779 0.935-0.934 1.779 1.779-0.935 0.935zM13.52 15.923l1.779-1.779 2.623 2.623-1.779 1.776-2.623-2.621zM19.144 18.923l-0.845 0.842h-0.090l-0.889-0.89 0.934-0.934 0.889 0.889c0.012 0.012 0.019 0.028 0.019 0.045s-0.006 0.033-0.018 0.045v0.002zM22.945 15.122c-0.125 0.122-0.293 0.19-0.467 0.189s-0.342-0.069-0.466-0.192l-5.069-5.063c-0.092-0.093-0.155-0.211-0.18-0.34s-0.012-0.262 0.039-0.383c0.050-0.121 0.135-0.224 0.244-0.297s0.237-0.112 0.368-0.112c0.087 0 0.172 0.018 0.252 0.052s0.152 0.083 0.213 0.145l5.069 5.067c0.061 0.061 0.11 0.134 0.143 0.214s0.050 0.166 0.050 0.252c-0 0.086-0.017 0.172-0.051 0.252s-0.082 0.152-0.143 0.213v0.002z"></path>
    </symbol>
    <symbol id="icon-service" viewBox="0 0 32 32">
        <path d="M30.4 0h-28.8c-0.424 0.001-0.83 0.17-1.13 0.47s-0.469 0.706-0.47 1.13v28.8c0.001 0.424 0.17 0.83 0.47 1.13s0.706 0.469 1.13 0.47h28.8c0.424-0.001 0.83-0.17 1.13-0.47s0.469-0.706 0.47-1.13v-28.8c-0.001-0.424-0.17-0.83-0.47-1.13s-0.706-0.469-1.13-0.47zM30.933 30.4c0 0.141-0.056 0.277-0.156 0.377s-0.236 0.156-0.377 0.156h-28.8c-0.141 0-0.277-0.056-0.377-0.156s-0.156-0.236-0.156-0.377v-25.067h29.867v25.067zM30.933 4.267h-29.867v-2.667c0-0.141 0.056-0.277 0.156-0.377s0.236-0.156 0.377-0.156h28.8c0.141 0 0.277 0.056 0.377 0.156s0.156 0.236 0.156 0.377v2.667z"></path>
        <path d="M3.2 2.133h-0.533c-0.141 0-0.277 0.056-0.377 0.156s-0.156 0.236-0.156 0.377c0 0.141 0.056 0.277 0.156 0.377s0.236 0.156 0.377 0.156h0.533c0.141 0 0.277-0.056 0.377-0.156s0.156-0.236 0.156-0.377c0-0.141-0.056-0.277-0.156-0.377s-0.236-0.156-0.377-0.156z"></path>
        <path d="M5.333 2.133h-0.533c-0.141 0-0.277 0.056-0.377 0.156s-0.156 0.236-0.156 0.377c0 0.141 0.056 0.277 0.156 0.377s0.236 0.156 0.377 0.156h0.533c0.141 0 0.277-0.056 0.377-0.156s0.156-0.236 0.156-0.377c0-0.141-0.056-0.277-0.156-0.377s-0.236-0.156-0.377-0.156z"></path>
        <path d="M7.467 2.133h-0.533c-0.141 0-0.277 0.056-0.377 0.156s-0.156 0.236-0.156 0.377c0 0.141 0.056 0.277 0.156 0.377s0.236 0.156 0.377 0.156h0.533c0.141 0 0.277-0.056 0.377-0.156s0.156-0.236 0.156-0.377c0-0.141-0.056-0.277-0.156-0.377s-0.236-0.156-0.377-0.156z"></path>
        <path d="M29.333 2.133h-18.667c-0.141 0-0.277 0.056-0.377 0.156s-0.156 0.236-0.156 0.377c0 0.141 0.056 0.277 0.156 0.377s0.236 0.156 0.377 0.156h18.667c0.141 0 0.277-0.056 0.377-0.156s0.156-0.236 0.156-0.377c0-0.141-0.056-0.277-0.156-0.377s-0.236-0.156-0.377-0.156z"></path>
        <path d="M26.133 15.467h-0.907c-0.198-0.687-0.473-1.349-0.821-1.973l0.645-0.64c0.297-0.302 0.464-0.709 0.464-1.133s-0.167-0.831-0.464-1.133l-1.509-1.504c-0.301-0.297-0.707-0.464-1.131-0.464s-0.829 0.167-1.131 0.464l-0.64 0.645c-0.624-0.348-1.286-0.623-1.973-0.821v-0.907c-0.001-0.424-0.17-0.83-0.47-1.13s-0.706-0.469-1.13-0.47h-2.133c-0.424 0.001-0.83 0.17-1.13 0.47s-0.469 0.706-0.47 1.13v0.907c-0.687 0.198-1.349 0.473-1.973 0.821l-0.64-0.645c-0.302-0.297-0.709-0.464-1.133-0.464s-0.831 0.167-1.133 0.464l-1.504 1.509c-0.297 0.301-0.464 0.707-0.464 1.131s0.167 0.829 0.464 1.131l0.645 0.64c-0.348 0.624-0.623 1.286-0.821 1.973h-0.907c-0.424 0.001-0.83 0.17-1.13 0.47s-0.469 0.706-0.47 1.13v2.133c0.001 0.424 0.17 0.83 0.47 1.13s0.706 0.469 1.13 0.47h0.907c0.198 0.687 0.473 1.349 0.821 1.973l-0.645 0.64c-0.297 0.302-0.464 0.709-0.464 1.133s0.167 0.831 0.464 1.133l1.509 1.504c0.301 0.297 0.707 0.464 1.131 0.464s0.829-0.167 1.131-0.464l0.64-0.645c0.624 0.348 1.286 0.623 1.973 0.821v0.907c0.001 0.424 0.17 0.83 0.47 1.13s0.706 0.469 1.13 0.47h2.133c0.424-0.001 0.83-0.17 1.13-0.47s0.469-0.706 0.47-1.13v-0.907c0.687-0.198 1.349-0.473 1.973-0.821l0.64 0.645c0.302 0.297 0.709 0.464 1.133 0.464s0.831-0.167 1.133-0.464l1.504-1.509c0.297-0.301 0.464-0.707 0.464-1.131s-0.167-0.829-0.464-1.131l-0.645-0.64c0.348-0.624 0.623-1.286 0.821-1.973h0.907c0.424-0.001 0.83-0.17 1.13-0.47s0.469-0.706 0.47-1.13v-2.133c-0.001-0.424-0.17-0.83-0.47-1.13s-0.706-0.469-1.13-0.47zM26.667 19.2c0 0.141-0.056 0.277-0.156 0.377s-0.236 0.156-0.377 0.156h-1.317c-0.12 0-0.236 0.041-0.33 0.116s-0.16 0.178-0.187 0.295c-0.209 0.86-0.551 1.683-1.013 2.437-0.062 0.102-0.088 0.222-0.075 0.341s0.066 0.23 0.149 0.315l0.933 0.933c0.051 0.049 0.091 0.107 0.118 0.172s0.042 0.134 0.042 0.204c0 0.070-0.014 0.14-0.042 0.204s-0.068 0.123-0.118 0.172l-1.499 1.504c-0.049 0.051-0.108 0.091-0.173 0.118s-0.135 0.042-0.206 0.042-0.141-0.014-0.206-0.042c-0.065-0.028-0.124-0.068-0.173-0.118l-0.933-0.933c-0.086-0.083-0.197-0.136-0.315-0.149s-0.239 0.013-0.341 0.075c-0.755 0.463-1.577 0.805-2.437 1.013-0.117 0.028-0.221 0.094-0.295 0.187s-0.115 0.21-0.116 0.33v1.317c0 0.141-0.056 0.277-0.156 0.377s-0.236 0.156-0.377 0.156h-2.133c-0.141 0-0.277-0.056-0.377-0.156s-0.156-0.236-0.156-0.377v-1.317c-0-0.12-0.041-0.236-0.116-0.33s-0.178-0.16-0.295-0.187c-0.86-0.209-1.683-0.551-2.437-1.013-0.083-0.052-0.179-0.080-0.277-0.080-0.141 0.001-0.277 0.056-0.379 0.155l-0.933 0.933c-0.049 0.050-0.108 0.090-0.172 0.117s-0.134 0.041-0.204 0.041-0.139-0.014-0.204-0.041c-0.065-0.027-0.123-0.067-0.172-0.117l-1.504-1.499c-0.051-0.049-0.091-0.108-0.118-0.173s-0.042-0.135-0.042-0.206 0.014-0.141 0.042-0.206c0.028-0.065 0.068-0.124 0.118-0.173l0.933-0.933c0.083-0.086 0.136-0.197 0.149-0.315s-0.013-0.239-0.075-0.341c-0.463-0.755-0.805-1.577-1.013-2.437-0.028-0.117-0.094-0.221-0.187-0.295s-0.21-0.115-0.33-0.116h-1.317c-0.141 0-0.277-0.056-0.377-0.156s-0.156-0.236-0.156-0.377v-2.133c0-0.141 0.056-0.277 0.156-0.377s0.236-0.156 0.377-0.156h1.317c0.12-0 0.236-0.041 0.33-0.116s0.16-0.178 0.187-0.295c0.209-0.86 0.551-1.683 1.013-2.437 0.062-0.102 0.088-0.222 0.075-0.341s-0.066-0.23-0.149-0.315l-0.933-0.933c-0.051-0.049-0.091-0.107-0.118-0.172s-0.042-0.134-0.042-0.204c0-0.070 0.014-0.14 0.042-0.204s0.068-0.123 0.118-0.172l1.499-1.504c0.049-0.051 0.108-0.091 0.173-0.118s0.135-0.042 0.206-0.042 0.141 0.014 0.206 0.042c0.065 0.028 0.124 0.068 0.173 0.118l0.933 0.933c0.086 0.083 0.197 0.136 0.315 0.149s0.239-0.013 0.341-0.075c0.755-0.463 1.577-0.805 2.437-1.013 0.117-0.028 0.221-0.094 0.295-0.187s0.115-0.21 0.116-0.33v-1.317c0-0.141 0.056-0.277 0.156-0.377s0.236-0.156 0.377-0.156h2.133c0.141 0 0.277 0.056 0.377 0.156s0.156 0.236 0.156 0.377v1.317c0 0.12 0.041 0.236 0.116 0.33s0.178 0.16 0.295 0.187c0.86 0.209 1.683 0.551 2.437 1.013 0.102 0.062 0.222 0.088 0.341 0.075s0.23-0.066 0.315-0.149l0.933-0.933c0.049-0.051 0.107-0.091 0.172-0.118s0.134-0.042 0.204-0.042c0.070 0 0.14 0.014 0.204 0.042s0.123 0.068 0.172 0.118l1.504 1.499c0.051 0.049 0.091 0.108 0.118 0.173s0.042 0.135 0.042 0.206-0.014 0.141-0.042 0.206c-0.028 0.065-0.068 0.124-0.118 0.173l-0.933 0.933c-0.083 0.086-0.136 0.197-0.149 0.315s0.013 0.239 0.075 0.341c0.463 0.755 0.805 1.577 1.013 2.437 0.028 0.117 0.094 0.221 0.187 0.295s0.21 0.115 0.33 0.116h1.317c0.141 0 0.277 0.056 0.377 0.156s0.156 0.236 0.156 0.377v2.133z"></path>
        <path d="M16 11.2c-1.371 0-2.712 0.407-3.852 1.168s-2.029 1.845-2.554 3.112c-0.525 1.267-0.662 2.661-0.395 4.006s0.928 2.58 1.898 3.55c0.97 0.97 2.205 1.63 3.55 1.898s2.739 0.13 4.006-0.395c1.267-0.525 2.35-1.413 3.112-2.554s1.168-2.481 1.168-3.852c-0.002-1.838-0.733-3.601-2.033-4.901s-3.062-2.031-4.901-2.033zM17.867 21.36c-0.081 0.047-0.149 0.115-0.196 0.196s-0.071 0.174-0.071 0.268v1.947c-1.045 0.306-2.155 0.306-3.2 0v-1.947c0-0.094-0.024-0.186-0.071-0.268s-0.114-0.149-0.196-0.196c-0.544-0.314-1-0.76-1.326-1.297s-0.51-1.148-0.537-1.776c-0.027-0.628 0.106-1.252 0.385-1.815s0.696-1.046 1.212-1.405v3.067c0 0.088 0.023 0.174 0.064 0.251s0.102 0.143 0.176 0.191l1.6 1.067c0.086 0.060 0.188 0.092 0.293 0.092s0.207-0.032 0.293-0.092l1.6-1.067c0.073-0.048 0.134-0.114 0.176-0.191s0.064-0.164 0.064-0.251v-3.067c0.516 0.359 0.933 0.842 1.212 1.405s0.412 1.187 0.385 1.815c-0.027 0.628-0.211 1.239-0.537 1.776s-0.782 0.984-1.326 1.297zM18.667 23.355v-1.232c0.726-0.484 1.306-1.158 1.678-1.947s0.522-1.666 0.433-2.534c-0.089-0.868-0.413-1.696-0.937-2.394s-1.229-1.24-2.038-1.567c-0.082-0.031-0.17-0.043-0.257-0.033s-0.171 0.039-0.244 0.087c-0.072 0.050-0.13 0.116-0.171 0.193s-0.063 0.163-0.064 0.25v3.669l-1.067 0.715-1.067-0.715v-3.669c0-0.088-0.021-0.174-0.062-0.252s-0.101-0.144-0.173-0.193-0.157-0.079-0.244-0.088c-0.087-0.009-0.176 0.004-0.257 0.037-0.809 0.327-1.514 0.869-2.038 1.567s-0.848 1.526-0.937 2.394c-0.089 0.868 0.061 1.745 0.433 2.534s0.952 1.463 1.678 1.947v1.232c-1.173-0.599-2.111-1.575-2.662-2.772s-0.683-2.544-0.375-3.825c0.308-1.281 1.038-2.421 2.073-3.236s2.314-1.259 3.631-1.259 2.597 0.443 3.631 1.259c1.035 0.815 1.765 1.955 2.073 3.236s0.176 2.628-0.375 3.825-1.489 2.173-2.662 2.772z"></path>
    </symbol>
</defs>
</svg>
