<svg aria-hidden="true" style="position: absolute; width: 0; height: 0; overflow: hidden;" version="1.1" xmlns="http://www.w3.org/2000/svg" xmlns:xlink="http://www.w3.org/1999/xlink">
<defs>
<symbol id="icon-facebook" viewBox="0 0 18 32">
<path d="M11.25 32h-5.125c-0.856 0-1.552-0.696-1.552-1.552v-11.559h-2.99c-0.856 0-1.552-0.697-1.552-1.552v-4.953c0-0.856 0.696-1.552 1.552-1.552h2.99v-2.48c0-2.459 0.772-4.551 2.233-6.050 1.467-1.506 3.518-2.301 5.93-2.301l3.908 0.006c0.854 0.001 1.55 0.698 1.55 1.552v4.599c0 0.856-0.696 1.552-1.552 1.552l-2.631 0.001c-0.803 0-1.007 0.161-1.051 0.21-0.072 0.082-0.158 0.313-0.158 0.951v1.96h3.642c0.274 0 0.54 0.068 0.768 0.195 0.492 0.275 0.799 0.795 0.799 1.358l-0.002 4.953c0 0.855-0.696 1.552-1.552 1.552h-3.654v11.559c0 0.856-0.697 1.552-1.553 1.552zM6.449 30.124h4.477v-12.075c0-0.572 0.465-1.036 1.036-1.036h4.17l0.002-4.305h-4.172c-0.571 0-1.036-0.465-1.036-1.036v-2.799c0-0.733 0.075-1.566 0.628-2.193 0.668-0.757 1.722-0.845 2.456-0.845l2.308-0.001v-3.952l-3.583-0.006c-3.877 0-6.285 2.481-6.285 6.476v3.32c0 0.571-0.465 1.036-1.036 1.036h-3.506v4.305h3.506c0.571 0 1.036 0.465 1.036 1.036v12.075z"></path>
</symbol>
<symbol id="icon-instagram" viewBox="0 0 32 32">
<path d="M23.338 0h-14.676c-4.776 0-8.662 3.886-8.662 8.662v14.676c0 4.776 3.886 8.662 8.662 8.662h14.676c4.776 0 8.662-3.886 8.662-8.662v-14.676c0-4.776-3.886-8.662-8.662-8.662zM30.124 23.338c0 3.742-3.044 6.786-6.786 6.786h-14.676c-3.742 0-6.786-3.044-6.786-6.786v-14.676c0-3.742 3.044-6.786 6.786-6.786h14.676c3.742 0 6.786 3.044 6.786 6.786v14.676z"></path>
<path d="M16 7.25c-4.825 0-8.75 3.925-8.75 8.75s3.925 8.75 8.75 8.75c4.825 0 8.75-3.925 8.75-8.75s-3.925-8.75-8.75-8.75zM16 22.874c-3.79 0-6.874-3.083-6.874-6.874s3.084-6.874 6.874-6.874c3.79 0 6.874 3.084 6.874 6.874s-3.083 6.874-6.874 6.874z"></path>
<path d="M24.959 4.143c-1.426 0-2.585 1.16-2.585 2.585s1.16 2.586 2.585 2.586c1.426 0 2.586-1.16 2.586-2.586s-1.16-2.585-2.586-2.585zM24.959 7.438c-0.391 0-0.709-0.318-0.709-0.71s0.318-0.709 0.709-0.709c0.391 0 0.71 0.318 0.71 0.709s-0.318 0.71-0.71 0.71z"></path>
</symbol>
<symbol id="icon-youtube" viewBox="0 0 42 32">
<path d="M27.613 14.102l-9.329-5.104c-0.536-0.294-1.17-0.283-1.696 0.029s-0.84 0.863-0.84 1.474v10.121c0 0.609 0.312 1.159 0.834 1.471 0.273 0.163 0.575 0.245 0.879 0.245 0.278 0 0.556-0.069 0.812-0.206l9.329-5.016c0.554-0.298 0.899-0.874 0.902-1.503s-0.339-1.207-0.891-1.51zM18.223 19.349v-7.564l6.972 3.815-6.972 3.749z"></path>
<path d="M41.916 7.549l-0.002-0.019c-0.036-0.34-0.392-3.363-1.861-4.901-1.699-1.809-3.625-2.028-4.551-2.134-0.077-0.009-0.147-0.017-0.21-0.025l-0.074-0.008c-5.582-0.406-14.013-0.461-14.098-0.462l-0.007-0-0.007 0c-0.084 0-8.515 0.056-14.148 0.462l-0.074 0.008c-0.060 0.008-0.126 0.015-0.198 0.024-0.916 0.106-2.821 0.326-4.524 2.2-1.4 1.521-1.804 4.48-1.846 4.812l-0.005 0.043c-0.013 0.141-0.311 3.508-0.311 6.889v3.16c0 3.38 0.298 6.747 0.311 6.889l0.002 0.021c0.036 0.334 0.391 3.302 1.854 4.841 1.597 1.748 3.617 1.979 4.703 2.104 0.172 0.020 0.32 0.036 0.42 0.054l0.098 0.014c3.223 0.307 13.329 0.458 13.758 0.464l0.013 0 0.013-0c0.084-0 8.515-0.056 14.097-0.462l0.074-0.008c0.071-0.009 0.15-0.018 0.237-0.027 0.91-0.097 2.805-0.297 4.486-2.146 1.4-1.522 1.805-4.48 1.846-4.812l0.005-0.043c0.013-0.142 0.311-3.508 0.311-6.889v-3.16c-0-3.38-0.298-6.747-0.311-6.889zM39.752 17.597c0 3.129-0.273 6.351-0.299 6.646-0.105 0.815-0.532 2.686-1.214 3.428-1.052 1.157-2.132 1.272-2.92 1.355-0.095 0.010-0.184 0.020-0.264 0.030-5.399 0.39-13.512 0.45-13.886 0.453-0.419-0.006-10.377-0.159-13.502-0.449-0.16-0.026-0.333-0.046-0.515-0.067-0.925-0.106-2.191-0.251-3.165-1.322l-0.023-0.024c-0.67-0.698-1.085-2.448-1.19-3.394-0.020-0.224-0.3-3.484-0.3-6.656v-3.16c0-3.125 0.273-6.343 0.299-6.645 0.125-0.96 0.56-2.718 1.214-3.429 1.084-1.192 2.226-1.324 2.982-1.411 0.072-0.008 0.139-0.016 0.202-0.024 5.478-0.392 13.649-0.451 13.942-0.453 0.293 0.002 8.461 0.061 13.89 0.453 0.067 0.008 0.139 0.017 0.218 0.026 0.777 0.089 1.952 0.223 3.031 1.373l0.010 0.011c0.67 0.698 1.085 2.479 1.19 3.443 0.019 0.211 0.3 3.478 0.3 6.657v3.16z"></path>
</symbol>
<symbol id="icon-twitter" viewBox="0 0 39 32">
<path d="M14.738 31.978c-6.465 0-11.574-1.129-14.018-3.098l-0.048-0.038-0.043-0.043c-0.581-0.581-0.771-1.343-0.522-2.091l0.023-0.062c0.303-0.757 1.044-1.266 1.848-1.271 1.654-0.029 3.1-0.226 4.413-0.608-2.094-0.974-3.549-2.66-4.415-5.101-0.291-0.761-0.040-1.605 0.631-2.108 0.166-0.124 0.353-0.218 0.551-0.281-1.164-1.343-2.023-2.872-2.505-4.489l-0.015-0.050-0.010-0.051c-0.163-0.818 0.202-1.658 0.872-2.020 0.281-0.161 0.586-0.245 0.893-0.252-0.33-0.712-0.571-1.442-0.713-2.177-0.395-2.037-0.069-4.078 0.969-6.068l0.24-0.48c0.192-0.384 0.56-0.655 0.984-0.723s0.858 0.071 1.162 0.375l0.438 0.438c3.457 3.625 6.554 5.345 11.909 6.521 0.239-2.055 1.128-3.966 2.561-5.469 1.706-1.789 3.984-2.793 6.415-2.827h0.016c1.773 0 3.973 1.012 5.304 1.726 1.141-0.374 2.516-0.952 3.943-1.563 0.668-0.313 1.491-0.17 2.015 0.355 0.514 0.514 0.657 1.24 0.384 1.945-0.104 0.289-0.221 0.572-0.352 0.849 0.195 0.090 0.374 0.211 0.525 0.362 0.457 0.457 0.647 1.171 0.485 1.821l-0.017 0.062c-0.547 1.762-1.597 3.197-2.986 4.098-0.232 12.353-9.534 22.323-20.935 22.323zM2.898 27.615c2.304 1.303 6.693 2.092 11.84 2.092 4.948 0 9.618-2.124 13.148-5.982 3.559-3.889 5.519-9.054 5.519-14.543v-0.062c0-0.497 0.274-0.951 0.714-1.184 0.893-0.473 1.617-1.279 2.087-2.309-0.485 0.077-0.978-0.118-1.281-0.524-0.351-0.472-0.355-1.109-0.010-1.585 0.186-0.257 0.355-0.525 0.506-0.801-1.232 0.517-2.402 0.981-3.418 1.29-0.369 0.112-0.78 0.068-1.118-0.12-1.808-1.007-3.492-1.61-4.508-1.613-3.747 0.057-6.793 3.266-6.793 7.157 0 0.402-0.178 0.779-0.489 1.035s-0.715 0.358-1.11 0.28c-6.174-1.216-9.832-3.040-13.636-6.863-0.545 1.306-0.694 2.622-0.442 3.922 0.256 1.316 0.936 2.635 1.967 3.814 0.392 0.447 0.444 1.087 0.129 1.592-0.313 0.503-0.909 0.738-1.481 0.585-0.447-0.12-0.859-0.277-1.249-0.48 0.795 1.726 2.161 3.322 3.879 4.5 0.498 0.341 0.706 0.978 0.506 1.547s-0.759 0.938-1.363 0.893c-0.658-0.049-1.241-0.174-1.778-0.384 0.963 1.962 2.503 3.041 4.874 3.454 0.565 0.098 1.004 0.544 1.094 1.11s-0.19 1.126-0.696 1.394c-2.021 1.072-4.231 1.647-6.895 1.788z"></path>
</symbol>
</defs>
</svg>
